<?xml version="1.0" encoding="UTF-8" ?>
<svg version="1.1" width="32" height="32" xmlns="http://www.w3.org/2000/svg" shape-rendering="crispEdges">
<rect x="4" y="2" width="2" height="2" fill="#3D212D" />
<rect x="14" y="2" width="2" height="2" fill="#3D212D" />
<rect x="2" y="4" width="2" height="4" fill="#3D212D" />
<rect x="4" y="4" width="2" height="4" fill="#EEC39A" />
<rect x="6" y="4" width="2" height="4" fill="#3D212D" />
<rect x="12" y="4" width="2" height="4" fill="#3D212D" />
<rect x="14" y="4" width="2" height="4" fill="#EEC39A" />
<rect x="16" y="4" width="2" height="4" fill="#3D212D" />
<rect x="8" y="6" width="4" height="2" fill="#3D212D" />
<rect x="0" y="8" width="2" height="2" fill="#3D212D" />
<rect x="2" y="8" width="10" height="2" fill="#EEEEEE" />
<rect x="12" y="8" width="6" height="2" fill="#616269" />
<rect x="18" y="8" width="2" height="2" fill="#3D212D" />
<rect x="2" y="10" width="2" height="4" fill="#3D212D" />
<rect x="4" y="10" width="2" height="4" fill="#EEEEEE" />
<rect x="6" y="10" width="2" height="4" fill="#3D212D" />
<rect x="8" y="10" width="4" height="4" fill="#EEEEEE" />
<rect x="12" y="10" width="2" height="4" fill="#3D212D" />
<rect x="14" y="10" width="2" height="2" fill="#616269" />
<rect x="16" y="10" width="2" height="4" fill="#3D212D" />
<rect x="14" y="12" width="2" height="8" fill="#EEEEEE" />
<rect x="0" y="14" width="2" height="4" fill="#3D212D" />
<rect x="2" y="14" width="2" height="4" fill="#616269" />
<rect x="4" y="14" width="10" height="2" fill="#FFD0BD" />
<rect x="16" y="14" width="2" height="4" fill="#EEEEEE" />
<rect x="18" y="14" width="2" height="4" fill="#3D212D" />
<rect x="4" y="16" width="2" height="4" fill="#FFD0BD" />
<rect x="6" y="16" width="2" height="2" fill="#3D212D" />
<rect x="8" y="16" width="2" height="4" fill="#FFD0BD" />
<rect x="10" y="16" width="2" height="2" fill="#3D212D" />
<rect x="12" y="16" width="2" height="4" fill="#FFD0BD" />
<rect x="20" y="16" width="8" height="2" fill="#3D212D" />
<rect x="2" y="18" width="2" height="2" fill="#3D212D" />
<rect x="6" y="18" width="2" height="2" fill="#FFD0BD" />
<rect x="10" y="18" width="2" height="2" fill="#FFD0BD" />
<rect x="16" y="18" width="2" height="2" fill="#3D212D" />
<rect x="18" y="18" width="6" height="2" fill="#616269" />
<rect x="24" y="18" width="2" height="6" fill="#EEEEEE" />
<rect x="26" y="18" width="2" height="2" fill="#616269" />
<rect x="28" y="18" width="2" height="14" fill="#3D212D" />
<rect x="4" y="20" width="12" height="2" fill="#3D212D" />
<rect x="16" y="20" width="2" height="6" fill="#EEEEEE" />
<rect x="18" y="20" width="4" height="2" fill="#616269" />
<rect x="22" y="20" width="2" height="8" fill="#EEEEEE" />
<rect x="26" y="20" width="2" height="2" fill="#EEEEEE" />
<rect x="30" y="20" width="2" height="8" fill="#3D212D" />
<rect x="4" y="22" width="2" height="10" fill="#3D212D" />
<rect x="6" y="22" width="10" height="2" fill="#EEEEEE" />
<rect x="18" y="22" width="4" height="4" fill="#EEEEEE" />
<rect x="26" y="22" width="2" height="6" fill="#616269" />
<rect x="6" y="24" width="2" height="6" fill="#616269" />
<rect x="8" y="24" width="6" height="2" fill="#EEEEEE" />
<rect x="14" y="24" width="2" height="4" fill="#616269" />
<rect x="24" y="24" width="2" height="2" fill="#616269" />
<rect x="8" y="26" width="2" height="2" fill="#616269" />
<rect x="10" y="26" width="4" height="2" fill="#EEEEEE" />
<rect x="16" y="26" width="4" height="2" fill="#616269" />
<rect x="20" y="26" width="2" height="2" fill="#EEEEEE" />
<rect x="24" y="26" width="2" height="2" fill="#EEEEEE" />
<rect x="8" y="28" width="8" height="2" fill="#3D212D" />
<rect x="16" y="28" width="2" height="2" fill="#616269" />
<rect x="18" y="28" width="8" height="2" fill="#3D212D" />
<rect x="26" y="28" width="2" height="2" fill="#EEEEEE" />
<rect x="6" y="30" width="2" height="2" fill="#3D212D" />
<rect x="16" y="30" width="4" height="2" fill="#3D212D" />
<rect x="26" y="30" width="2" height="2" fill="#3D212D" />
</svg>